<svg width="36" height="36" viewBox="0 0 36 36" fill="none" xmlns="http://www.w3.org/2000/svg">
<path d="M18 36C27.9411 36 36 27.9411 36 18C36 8.05887 27.9411 0 18 0C8.05887 0 0 8.05887 0 18C0 27.9411 8.05887 36 18 36Z" fill="#DADADA"/>
<path d="M18.0001 20.5H17.9801C14.1401 20.49 11.0301 17.36 11.0401 13.53C11.0501 9.7 14.1801 6.58 18.0101 6.58H18.0301C21.8701 6.58 24.9801 9.72 24.9701 13.55C24.9701 15.41 24.2401 17.15 22.9201 18.46C21.6001 19.77 19.8601 20.49 18.0001 20.49V20.5ZM18.0001 9.86C15.9601 9.86 14.3001 11.51 14.3001 13.55C14.3001 15.58 15.9501 17.23 17.9801 17.24H17.9901C18.9801 17.24 19.9001 16.86 20.6001 16.16C21.3001 15.47 21.6801 14.54 21.6801 13.56C21.6801 11.53 20.0301 9.87 18.0001 9.87V9.86Z" fill="white"/>
<path d="M23.11 23.11C20.78 22.4 18.15 22.25 15.09 22.65C12.02 23.05 9.38003 24.24 7.24003 26.19C6.02003 27.3 5.11003 28.56 4.53003 29.94C5.32003 30.83 6.19003 31.64 7.14003 32.36L7.34003 31.73C7.72003 30.57 8.40003 29.55 9.44003 28.61C11.07 27.12 13.11 26.21 15.5 25.9C18.1 25.56 20.27 25.68 22.15 26.25C25.62 27.3 27.74 29.11 28.62 31.77L28.82 32.38C29.77 31.66 30.64 30.85 31.43 29.97C30.07 26.69 27.27 24.39 23.09 23.13L23.11 23.11Z" fill="white"/>
</svg>
