<svg width="135" height="14" viewBox="0 0 135 14" fill="none" xmlns="http://www.w3.org/2000/svg">
<path d="M11.508 0.436H10.136V5.364H8.694V0.674H7.336V12.476H8.694V6.54H10.136V13.064H11.508V0.436ZM3.556 1.416C1.932 1.416 0.84 3.11 0.84 5.91C0.84 8.654 1.932 10.39 3.556 10.39C5.18 10.39 6.272 8.654 6.272 5.91C6.272 3.11 5.18 1.416 3.556 1.416ZM3.556 9.032C2.702 9.032 2.17 7.94 2.17 5.91C2.17 3.88 2.702 2.774 3.556 2.774C4.41 2.774 4.942 3.88 4.942 5.91C4.942 7.94 4.41 9.032 3.556 9.032ZM22.6229 6.372H20.2429V7.268H22.6229V7.814H24.0649V0.436H22.6229V6.372ZM17.6249 4.44C19.5009 4.44 20.7609 3.712 20.7609 2.55C20.7609 1.388 19.5009 0.659999 17.6249 0.659999C15.7209 0.659999 14.4749 1.388 14.4749 2.55C14.4749 3.712 15.7209 4.44 17.6249 4.44ZM17.6249 1.626C18.7029 1.626 19.4029 1.948 19.4029 2.55C19.4029 3.152 18.7029 3.474 17.6249 3.474C16.5049 3.474 15.8329 3.152 15.8329 2.55C15.8329 1.948 16.5049 1.626 17.6249 1.626ZM16.8269 6.05V7.856H18.2829V5.994C19.4589 5.938 20.6489 5.84 21.8249 5.672L21.7269 4.762C19.0389 5.028 16.0009 5.056 13.5649 5.056L13.7329 6.092C14.6849 6.092 15.7069 6.092 16.8269 6.05ZM24.4289 11.944H16.8829V11.02H24.0649V8.262H15.4269V9.256H22.6369V10.096H15.4549V12.966H24.4289V11.944ZM32.1838 0.645999C29.4258 0.645999 27.6758 1.542 27.6758 3.012C27.6758 4.496 29.4258 5.378 32.1838 5.378C34.9418 5.378 36.6918 4.496 36.6918 3.012C36.6918 1.542 34.9418 0.645999 32.1838 0.645999ZM32.1838 1.752C34.1018 1.752 35.1938 2.214 35.1938 3.012C35.1938 3.81 34.1018 4.272 32.1838 4.272C30.2658 4.272 29.1598 3.81 29.1598 3.012C29.1598 2.214 30.2658 1.752 32.1838 1.752ZM37.9098 6.232H26.4578V7.394H37.9098V6.232ZM29.2998 8.136H27.8718V12.924H36.4818V8.136H35.0538V9.326H29.2998V8.136ZM29.2998 11.776V10.432H35.0538V11.776H29.2998ZM52.9396 0.436H51.4976V13.092H52.9396V0.436ZM46.5976 6.288C48.4876 6.288 49.8596 5.196 49.8596 3.628C49.8596 2.074 48.4876 0.981999 46.5976 0.981999C44.7076 0.981999 43.3356 2.074 43.3356 3.628C43.3356 5.196 44.7076 6.288 46.5976 6.288ZM46.5976 2.172C47.7176 2.172 48.4736 2.732 48.4736 3.628C48.4736 4.524 47.7176 5.098 46.5976 5.098C45.4776 5.098 44.7216 4.524 44.7216 3.628C44.7216 2.732 45.4776 2.172 46.5976 2.172ZM50.7696 7.828L50.6716 6.764C47.9556 7.17 44.7496 7.212 42.4816 7.212L42.6496 8.402C43.6576 8.402 44.7496 8.388 45.9396 8.346V12.7H47.3816V8.262C48.5016 8.164 49.6496 8.052 50.7696 7.828ZM65.8045 0.436H64.3625V13.078H65.8045V0.436ZM57.5305 8.654V1.668H56.1025V9.886H57.1805C59.1545 9.886 61.1565 9.732 63.3545 9.284L63.2005 8.08C61.1705 8.486 59.3365 8.64 57.5305 8.654ZM70.9554 1.304H69.5274V7.968H78.3754V1.304H76.9474V3.516H70.9554V1.304ZM70.9554 6.806V4.664H76.9474V6.806H70.9554ZM79.6914 10.306H68.2394V11.496H79.6914V10.306ZM95.9112 4.552V3.362H94.1192V0.422H92.6772V7.562H94.1192V4.552H95.9112ZM90.6472 1.192H84.7532V2.368H89.0932C88.8552 4.286 87.2032 5.826 84.1792 6.61L84.7392 7.758C88.4772 6.75 90.6472 4.482 90.6472 1.192ZM86.0412 8.108V12.924H94.1192V8.108H86.0412ZM87.4692 11.762V9.256H92.6912V11.762H87.4692ZM105.612 6.022H108.58V4.874H106.914C107.152 3.586 107.152 2.592 107.152 1.752V0.911999H98.5701V2.06H105.738C105.738 2.844 105.71 3.698 105.472 4.874H97.1281V6.022H100.068V7.464H98.4441V8.598H105.724V9.676H98.4721V12.952H107.488V11.818H99.9141V10.684H107.166V7.464H105.612V6.022ZM104.184 6.022V7.464H101.51V6.022H104.184ZM121.445 6.442H116.447V4.958H120.143V3.796H112.947V0.674H111.505V4.958H115.005V6.442H110.007V7.604H121.445V6.442ZM115.691 8.43C112.989 8.43 111.337 9.256 111.337 10.754C111.337 12.224 112.989 13.078 115.691 13.078C118.407 13.078 120.045 12.224 120.045 10.754C120.045 9.242 118.477 8.43 115.691 8.43ZM115.691 11.958C113.829 11.958 112.807 11.538 112.807 10.754C112.807 9.956 113.829 9.55 115.691 9.55C117.553 9.55 118.589 9.956 118.589 10.754C118.589 11.538 117.553 11.958 115.691 11.958ZM134.548 3.516H132.756V0.436H131.314V7.996H132.756V4.706H134.548V3.516ZM129.606 7.506L130.306 6.386C128.374 5.756 127.324 4.314 127.324 2.732V2.494H129.97V1.332H123.18V2.494H125.868V2.746C125.868 4.468 124.762 6.106 122.774 6.778L123.502 7.912C125.014 7.394 126.078 6.316 126.638 4.972C127.184 6.148 128.192 7.058 129.606 7.506ZM128.682 8.29C126.078 8.29 124.468 9.172 124.468 10.684C124.468 12.196 126.078 13.078 128.682 13.078C131.286 13.078 132.896 12.196 132.896 10.684C132.896 9.172 131.286 8.29 128.682 8.29ZM128.682 11.944C126.876 11.944 125.896 11.524 125.896 10.684C125.896 9.844 126.876 9.424 128.682 9.424C130.488 9.424 131.468 9.844 131.468 10.684C131.468 11.524 130.488 11.944 128.682 11.944Z" fill="black"/>
</svg>
