<svg width="63" height="13" viewBox="0 0 63 13" fill="none" xmlns="http://www.w3.org/2000/svg">
<path d="M0.358 1.696V12H1.982V7.562H5.79V6.204H1.982V3.054H6.462V1.696H0.358ZM10.9953 12.182C12.8993 12.182 14.6213 10.698 14.6213 8.164C14.6213 5.588 12.8993 4.104 10.9953 4.104C9.09127 4.104 7.36927 5.588 7.36927 8.164C7.36927 10.698 9.09127 12.182 10.9953 12.182ZM10.9953 10.866C9.80527 10.866 9.03527 9.788 9.03527 8.164C9.03527 6.526 9.76327 5.434 10.9953 5.434C12.2273 5.434 12.9693 6.526 12.9693 8.164C12.9693 9.788 12.2133 10.866 10.9953 10.866ZM16.4169 0.855999V12H18.0129V0.855999H16.4169ZM20.245 0.855999V12H21.841V0.855999H20.245ZM27.2511 12.182C29.1551 12.182 30.8771 10.698 30.8771 8.164C30.8771 5.588 29.1551 4.104 27.2511 4.104C25.3471 4.104 23.6251 5.588 23.6251 8.164C23.6251 10.698 25.3471 12.182 27.2511 12.182ZM27.2511 10.866C26.0611 10.866 25.2911 9.788 25.2911 8.164C25.2911 6.526 26.0191 5.434 27.2511 5.434C28.4831 5.434 29.2251 6.526 29.2251 8.164C29.2251 9.788 28.4691 10.866 27.2511 10.866ZM31.8487 4.3L33.9347 12H35.7967L36.7347 8.206C36.9447 7.478 37.0707 6.764 37.2247 5.966H37.2947C37.4627 6.764 37.6027 7.464 37.7847 8.192L38.7647 12H40.6967L42.6847 4.3H41.1727L40.1787 8.472C40.0107 9.214 39.8847 9.928 39.7307 10.656H39.6747C39.4927 9.928 39.3387 9.214 39.1567 8.472L38.0507 4.3H36.5527L35.4747 8.472C35.2927 9.2 35.1387 9.928 34.9707 10.656H34.9147C34.7607 9.928 34.6487 9.214 34.4947 8.472L33.4727 4.3H31.8487ZM47.3924 12.182C48.4004 12.182 49.2824 11.86 49.9964 11.37L49.4364 10.348C48.8764 10.726 48.2884 10.922 47.6024 10.922C46.2584 10.922 45.3484 10.04 45.2224 8.57H50.2204C50.2624 8.36 50.2904 8.094 50.2904 7.758C50.2904 5.574 49.1984 4.104 47.1544 4.104C45.3484 4.104 43.6404 5.644 43.6404 8.164C43.6404 10.698 45.3064 12.182 47.3924 12.182ZM48.9044 7.464H45.2084C45.3624 6.12 46.2304 5.364 47.1824 5.364C48.3024 5.364 48.9044 6.12 48.9044 7.464ZM52.1024 4.3V12H53.6984V7.198C54.1884 5.98 54.9444 5.546 55.5744 5.546C55.8964 5.546 56.0784 5.574 56.3444 5.672L56.6384 4.272C56.4004 4.16 56.1484 4.104 55.7704 4.104C54.9304 4.104 54.1324 4.678 53.5864 5.686H53.5444L53.4184 4.3H52.1024ZM59.8489 12.182C61.7529 12.182 62.7749 11.132 62.7749 9.844C62.7749 8.388 61.5849 7.912 60.5069 7.506C59.6669 7.198 58.8689 6.946 58.8689 6.288C58.8689 5.742 59.2609 5.336 60.1009 5.336C60.7589 5.336 61.2769 5.616 61.8229 6.008L62.5789 5.014C61.9489 4.524 61.1369 4.104 60.0729 4.104C58.3789 4.104 57.3429 5.07 57.3429 6.358C57.3429 7.674 58.5329 8.192 59.5409 8.598C60.3809 8.934 61.2489 9.214 61.2489 9.928C61.2489 10.53 60.8429 10.964 59.8909 10.964C59.0509 10.964 58.3929 10.628 57.7069 10.082L56.9509 11.118C57.6929 11.734 58.7849 12.182 59.8489 12.182Z" fill="black"/>
</svg>
