<svg width="166" height="166" viewBox="0 0 166 166" fill="none" xmlns="http://www.w3.org/2000/svg">
<rect width="166" height="166" fill="white"/>
<g filter="url(#filter0_b_7088_2771)">
<path d="M39.0152 135.714L36.3501 135.907V130.86C37.9134 130.622 39.7447 129.937 40.37 128.597H44.8217V153.252H39.0003V135.699L39.0152 135.714Z" fill="url(#paint0_linear_7088_2771)"/>
<path d="M47.8589 153.252V134.969H53.6803V136.026C54.5141 135.327 56.1667 134.657 57.7747 134.537H58.3107C62.7624 134.537 64.8319 137.53 64.8617 142.086V153.252H59.0402V144.572C59.0402 140.746 58.1171 140.091 56.4794 140.15C55.2139 140.21 54.6481 140.552 53.6803 141.282V153.252H47.8589Z" fill="url(#paint1_linear_7088_2771)"/>
<path d="M83.1893 152.865H68.0327V128.135H83.1893V152.865ZM77.7103 147.714V133.287H73.5266V147.714H77.7103ZM96.5593 136.414V142.161C96.0233 142.161 95.3235 142.22 94.5344 142.294C93.8049 142.399 93.1051 142.533 92.4798 142.696V154.295H86.3308V127.54H92.4798V137.009C93.1051 136.815 93.8049 136.637 94.5791 136.547C95.4128 136.488 96.0679 136.414 96.5742 136.414H96.5593Z" fill="url(#paint2_linear_7088_2771)"/>
<path d="M112.073 127.793V130.354C112.014 131.247 111.88 132.081 111.701 132.915H114.724V127.525H119.845V142.518H114.724V137.768C114.262 137.828 113.726 137.902 113.131 137.902C112.535 137.932 111.939 137.962 111.403 137.962C110.808 137.992 110.302 137.992 109.87 137.992H109.498C109.259 138.319 109.036 138.617 108.768 138.915C107.711 140.046 106.416 141.014 104.882 141.744C103.319 142.503 101.488 143.009 99.4032 143.203L98.1079 139.242C100.237 138.84 101.964 138.215 103.259 137.411H98.9119V133.495H106.46C106.565 133.123 106.654 132.766 106.728 132.364H98.3908V127.778H112.088L112.073 127.793ZM99.4479 150.096C102.44 149.635 104.927 148.86 106.922 147.833C108.843 146.835 110.078 145.51 110.614 143.917L110.674 143.486H116.882V143.858C116.778 144.662 116.614 145.421 116.346 146.151C117.969 146.448 119.533 146.821 121.066 147.252C122.987 147.848 125.056 148.816 127.245 150.111L124.625 154.935C122.763 153.803 120.873 152.88 118.907 152.136C116.987 151.436 115.021 150.9 112.997 150.602C112.833 150.707 112.669 150.87 112.505 150.975C109.84 152.895 106.192 154.161 101.473 154.756L99.4479 150.111V150.096ZM121.319 144.677V127.525H126.575V144.677H121.319Z" fill="url(#paint3_linear_7088_2771)"/>
<path d="M122.675 55.1879L94.008 34.953L86.0726 29.3558C83.5263 27.6022 80.035 28.2108 78.2494 30.7411C76.4477 33.2875 77.0563 36.8188 79.6106 38.6204L113.77 62.7309V105.21H97.3872C94.2643 105.21 91.7339 107.741 91.7339 110.864C91.7339 113.987 94.2643 116.517 97.3872 116.517H119.416C122.539 116.517 125.069 113.987 125.069 110.864V59.8002C125.069 57.9665 124.18 56.2449 122.675 55.1799V55.1879Z" fill="url(#paint4_linear_7088_2771)"/>
<path d="M46.3155 115.884C43.2246 115.884 40.7183 113.378 40.7183 110.287V59.7441C40.7183 56.6532 43.2246 54.1469 46.3155 54.1469C49.4064 54.1469 51.9127 56.6532 51.9127 59.7441V110.287C51.9127 113.378 49.4064 115.884 46.3155 115.884Z" fill="url(#paint5_linear_7088_2771)"/>
<path d="M60.8249 53.8987C57.7019 53.8987 55.1716 51.3683 55.1716 48.2454V31.5418C53.0336 32.2945 50.5673 31.71 49.0059 29.8843C46.972 27.5141 47.2522 23.9508 49.6224 21.9169L57.1494 15.4709C58.823 14.0376 61.1852 13.7012 63.1871 14.6301C65.1889 15.551 66.4781 17.5608 66.4781 19.7629V48.2534C66.4781 51.3763 63.9478 53.9067 60.8249 53.9067V53.8987Z" fill="url(#paint6_linear_7088_2771)"/>
<path d="M96.6823 116.517C94.8086 116.517 93.0149 115.588 91.9579 113.963L74.5177 87.3378V110.864C74.5177 113.987 71.9874 116.517 68.8644 116.517C65.7415 116.517 63.2112 113.987 63.2112 110.864V68.4002C63.2112 65.9018 64.8527 63.6998 67.2469 62.9871C69.6412 62.2745 72.2196 63.2193 73.5888 65.3093L91.0291 91.9341V68.4082C91.0291 65.2853 93.5594 62.7549 96.6823 62.7549C99.8053 62.7549 102.336 65.2853 102.336 68.4082V110.872C102.336 113.37 100.694 115.572 98.2999 116.285C97.7634 116.445 97.2188 116.525 96.6823 116.525V116.517Z" fill="url(#paint7_linear_7088_2771)"/>
<path d="M86.1045 29.3878C84.1186 27.9865 81.4762 27.9945 79.4903 29.3878L67.6393 37.7556C67.4631 37.8757 67.319 38.0279 67.1668 38.164L43.0564 55.1879C42.9763 55.2439 42.9123 55.316 42.8402 55.38C41.4789 56.3409 40.6702 57.9104 40.6702 59.576V70.7464L64.7646 53.7385C64.8447 53.6825 64.9087 53.6104 64.9808 53.5463L92.6145 33.9681L86.1125 29.3878H86.1045Z" fill="url(#paint8_linear_7088_2771)"/>
</g>
<defs>
<filter id="filter0_b_7088_2771" x="32.3501" y="10.11" width="98.8948" height="148.825" filterUnits="userSpaceOnUse" color-interpolation-filters="sRGB">
<feFlood flood-opacity="0" result="BackgroundImageFix"/>
<feGaussianBlur in="BackgroundImageFix" stdDeviation="2"/>
<feComposite in2="SourceAlpha" operator="in" result="effect1_backgroundBlur_7088_2771"/>
<feBlend mode="normal" in="SourceGraphic" in2="effect1_backgroundBlur_7088_2771" result="shape"/>
</filter>
<linearGradient id="paint0_linear_7088_2771" x1="40.5933" y1="153.252" x2="40.5933" y2="128.597" gradientUnits="userSpaceOnUse">
<stop offset="0.1" stop-color="#F9BA60"/>
<stop offset="0.46" stop-color="#FFD366"/>
</linearGradient>
<linearGradient id="paint1_linear_7088_2771" x1="56.3454" y1="-82.062" x2="56.3454" y2="134.552" gradientUnits="userSpaceOnUse">
<stop offset="0.1" stop-color="#F9BA60"/>
<stop offset="0.46" stop-color="#FFD366"/>
</linearGradient>
<linearGradient id="paint2_linear_7088_2771" x1="82.296" y1="154.28" x2="82.296" y2="127.54" gradientUnits="userSpaceOnUse">
<stop offset="0.1" stop-color="#F9BA60"/>
<stop offset="0.46" stop-color="#FFD366"/>
</linearGradient>
<linearGradient id="paint3_linear_7088_2771" x1="112.684" y1="154.92" x2="112.684" y2="127.54" gradientUnits="userSpaceOnUse">
<stop offset="0.1" stop-color="#F9BA60"/>
<stop offset="0.46" stop-color="#FFD366"/>
</linearGradient>
<linearGradient id="paint4_linear_7088_2771" x1="101.135" y1="116.517" x2="101.135" y2="28.3549" gradientUnits="userSpaceOnUse">
<stop stop-color="#E88E77"/>
<stop offset="0.82" stop-color="#FFE189"/>
</linearGradient>
<linearGradient id="paint5_linear_7088_2771" x1="46.3155" y1="115.884" x2="46.3155" y2="54.1549" gradientUnits="userSpaceOnUse">
<stop stop-color="#FABF61"/>
<stop offset="0.86" stop-color="#FFD565"/>
</linearGradient>
<linearGradient id="paint6_linear_7088_2771" x1="57.0614" y1="53.8987" x2="57.0614" y2="14.1096" gradientUnits="userSpaceOnUse">
<stop offset="0.08" stop-color="#FABF61"/>
<stop offset="0.57" stop-color="#FFD565"/>
</linearGradient>
<linearGradient id="paint7_linear_7088_2771" x1="82.7734" y1="116.517" x2="82.7734" y2="62.7549" gradientUnits="userSpaceOnUse">
<stop stop-color="#E88E77"/>
<stop offset="1" stop-color="#FCC965"/>
</linearGradient>
<linearGradient id="paint8_linear_7088_2771" x1="40.6622" y1="49.5426" x2="92.6065" y2="49.5426" gradientUnits="userSpaceOnUse">
<stop offset="0.08" stop-color="#FABF61"/>
<stop offset="0.57" stop-color="#FFD565"/>
</linearGradient>
</defs>
</svg>
