<svg width="93" height="17" viewBox="0 0 93 17" fill="none" xmlns="http://www.w3.org/2000/svg">
<path d="M1.844 6.072L4.004 4.254C3.986 4.56 3.986 4.866 3.986 5.154V13.272H1.214V15H8.468V13.272H5.966V1.662H4.346L0.746 4.74L1.844 6.072ZM11.4687 1.752V15H13.4487V8.754C13.4487 7.314 13.3047 5.784 13.1787 4.416H13.2687L14.6547 7.188L19.0467 15H21.1887V1.752H19.2087V7.926C19.2087 9.366 19.3527 10.968 19.4787 12.336H19.3887L18.0027 9.528L13.6107 1.752H11.4687ZM38.9794 8.016V6.486H36.4414V0.131999H34.5874V16.404H36.4414V8.016H38.9794ZM24.4174 1.716V12.336H32.0314V1.716H24.4174ZM26.2534 10.86V3.192H30.1954V10.86H26.2534ZM54.26 11.094V0.131999H52.496V11.094H54.26ZM46.538 6.27H49.238V9.636H50.984V0.401999H49.238V4.776H47.15C47.456 3.84 47.6 2.724 47.6 1.446H41.246V2.94H45.746C45.692 3.498 45.584 4.02 45.44 4.524L40.526 4.812L40.778 6.324L44.846 5.892C44 7.332 42.614 8.466 40.436 9.384L41.336 10.716C43.946 9.564 45.53 8.088 46.538 6.27ZM49.652 10.59V10.176H47.798V10.59C47.798 12.624 45.548 14.388 42.416 14.874L43.118 16.332C45.656 15.918 47.708 14.73 48.734 13.002C49.742 14.73 51.794 15.918 54.332 16.332L55.052 14.874C51.902 14.388 49.652 12.624 49.652 10.59ZM74.412 0.131999H72.558V16.404H74.412V0.131999ZM68.94 10.734V3.264H70.56V1.77H61.398V3.264H63.018V10.95C62.298 10.968 61.596 10.968 60.966 10.968L61.164 12.498C64.134 12.498 67.968 12.444 71.424 11.868L71.316 10.5C70.542 10.59 69.75 10.68 68.94 10.734ZM64.818 10.932V3.264H67.14V10.842C66.366 10.896 65.592 10.878 64.818 10.932ZM90.6286 9.294V7.8H81.2146V3.066H90.5026V1.554H79.3606V9.294H90.6286ZM92.3026 12.768H77.5606V14.298H92.3026V12.768Z" fill="black"/>
</svg>
