<svg width="71" height="86" viewBox="0 0 71 86" fill="none" xmlns="http://www.w3.org/2000/svg">
<path d="M68.8608 34.4939L44.7888 17.5023L38.1253 12.8022C35.987 11.3297 33.0554 11.8407 31.5559 13.9655C30.043 16.1037 30.554 19.069 32.699 20.5819L61.3837 40.828V76.4989H47.6263C45.004 76.4989 42.8792 78.6237 42.8792 81.2461C42.8792 83.8685 45.004 85.9933 47.6263 85.9933H66.1241C68.7465 85.9933 70.8713 83.8685 70.8713 81.2461V38.367C70.8713 36.8272 70.1249 35.3815 68.8608 34.4872V34.4939Z" fill="#D9D9D9"/>
<path d="M4.74042 85.4621C2.14495 85.4621 0.040329 83.3575 0.040329 80.762V38.3199C0.040329 35.7244 2.14495 33.6198 4.74042 33.6198C7.3359 33.6198 9.44052 35.7244 9.44052 38.3199V80.762C9.44052 83.3575 7.3359 85.4621 4.74042 85.4621Z" fill="#D9D9D9"/>
<path d="M16.9242 33.4114C14.3018 33.4114 12.177 31.2866 12.177 28.6642V14.6379C10.3817 15.2699 8.31068 14.7791 6.99949 13.246C5.29159 11.2557 5.52693 8.26351 7.51724 6.55561L13.8378 1.14276C15.2432 -0.0608376 17.2267 -0.343247 18.9077 0.43674C20.5888 1.21 21.6713 2.89773 21.6713 4.74684V28.6709C21.6713 31.2933 19.5465 33.4181 16.9242 33.4181V33.4114Z" fill="#D9D9D9"/>
<path d="M47.0345 85.9933C45.4611 85.9933 43.9549 85.2133 43.0673 83.8483L28.4224 61.4909V81.2461C28.4224 83.8685 26.2976 85.9933 23.6752 85.9933C21.0529 85.9933 18.9281 83.8685 18.9281 81.2461V45.5886C18.9281 43.4907 20.3065 41.6416 22.317 41.0432C24.3275 40.4447 26.4926 41.2381 27.6424 42.9931L42.2873 65.3505V45.5953C42.2873 42.9729 44.4121 40.8482 47.0345 40.8482C49.6569 40.8482 51.7817 42.9729 51.7817 45.5953V81.2528C51.7817 83.3507 50.4032 85.1998 48.3928 85.7983C47.9423 85.9328 47.485 86 47.0345 86V85.9933Z" fill="#DADADA"/>
<path d="M38.1521 12.8291C36.4846 11.6524 34.2656 11.6591 32.5981 12.8291L22.6465 19.8557C22.4986 19.9566 22.3776 20.0843 22.2498 20.1987L2.00376 34.4939C1.93652 34.541 1.88273 34.6015 1.82221 34.6553C0.679127 35.4622 0 36.7801 0 38.1787V47.5587L20.2326 33.2769C20.2998 33.2298 20.3536 33.1693 20.4141 33.1155L43.6188 16.6753L38.1589 12.8291H38.1521Z" fill="#D9D9D9"/>
</svg>
