<svg width="24" height="24" viewBox="0 0 24 24" fill="none" xmlns="http://www.w3.org/2000/svg">
<path d="M21.1495 22.9998H15.2848C14.8142 22.9998 14.4343 22.6135 14.4343 22.135C14.4343 21.6565 14.8142 21.2703 15.2848 21.2703H20.299V9.99199L11.8034 3.92528L3.701 9.82865V21.4278C3.701 21.9063 3.32111 22.2926 2.8505 22.2926C2.37989 22.2926 2 21.9063 2 21.4278V9.38474C2 9.1061 2.1323 8.84475 2.35532 8.68141L11.3026 2.16119C11.5974 1.94788 11.9906 1.94596 12.2873 2.15734L21.639 8.83707C21.8658 8.99849 22 9.26368 22 9.54424V22.135C22 22.6135 21.6201 22.9998 21.1495 22.9998Z" fill="#495573" stroke="#495573" stroke-width="0.3"/>
<path d="M8.47765 13.3319C8.41717 13.3761 8.3548 13.4203 8.29243 13.4626C8.23006 13.5049 8.16013 13.5452 8.08264 13.5837C8.01649 13.6163 7.94467 13.6471 7.86529 13.6721C7.78591 13.697 7.70653 13.7105 7.62715 13.7105C7.54777 13.7105 7.47028 13.6951 7.39657 13.6644C7.32286 13.6336 7.26049 13.5798 7.21135 13.501C7.10173 13.3396 7.0696 13.1878 7.11685 13.0456C7.1641 12.9034 7.2586 12.79 7.40035 12.7074L8.74225 11.9118C8.79706 11.8676 8.86888 11.833 8.95582 11.808C9.04276 11.7831 9.13159 11.7696 9.21853 11.7696C9.40564 11.7696 9.56629 11.8196 9.70426 11.9195C9.84223 12.0194 9.91027 12.177 9.91027 12.3884V17.4712C9.91027 17.6999 9.83656 17.8651 9.69292 17.9651C9.54739 18.065 9.38485 18.115 9.20341 18.115C9.1108 18.115 9.02008 18.1015 8.93503 18.0765C8.84998 18.0515 8.77249 18.0131 8.70445 17.9593C8.63641 17.9055 8.5816 17.8402 8.54002 17.7575C8.49844 17.6768 8.47765 17.5807 8.47765 17.4693V13.3338V13.3319Z" fill="#495573" stroke="#495573" stroke-width="0.1"/>
<path d="M9.20154 18.2091C9.09948 18.2091 9.0012 18.1957 8.9067 18.1668C8.81031 18.138 8.72337 18.0938 8.64588 18.0342C8.5665 17.9728 8.50224 17.894 8.45499 17.8017C8.40774 17.7076 8.38317 17.5942 8.38317 17.4693V13.5183C8.36994 13.5279 8.35671 13.5356 8.34348 13.5452C8.27544 13.5894 8.20173 13.6317 8.12424 13.6721C8.05431 13.7086 7.97682 13.7393 7.89177 13.7662C7.71222 13.8219 7.527 13.8239 7.35879 13.7547C7.26618 13.7163 7.18869 13.649 7.1301 13.5548C7.00536 13.3704 6.96945 13.1878 7.02615 13.0168C7.07907 12.8515 7.19058 12.7208 7.35312 12.6247L8.69502 11.8292C8.74794 11.785 8.8311 11.7427 8.93127 11.7158C9.23178 11.6293 9.53607 11.6793 9.76098 11.8426C9.92352 11.9618 10.0067 12.1463 10.0067 12.3903V17.4731C10.0067 17.7345 9.91974 17.9286 9.74775 18.0458C9.5871 18.1572 9.40377 18.213 9.20532 18.213L9.20154 18.2091ZM8.57217 13.1436V17.4674C8.57217 17.5634 8.58918 17.6441 8.6232 17.7114C8.65911 17.7806 8.70258 17.8363 8.76117 17.8805C8.81976 17.9266 8.8878 17.9593 8.96151 17.9824C9.03711 18.0054 9.11838 18.017 9.20343 18.017C9.36597 18.017 9.50961 17.9728 9.64002 17.8824C9.75909 17.7998 9.81768 17.6653 9.81768 17.4674V12.3845C9.81768 12.2039 9.76287 12.0752 9.65136 11.9944C9.5304 11.906 9.38865 11.8618 9.22044 11.8618C9.14106 11.8618 9.06168 11.8734 8.9823 11.8964C8.9067 11.9176 8.84622 11.9464 8.80086 11.9829L7.44762 12.7862C7.32477 12.8592 7.24539 12.9514 7.2057 13.0725C7.1679 13.1859 7.19625 13.3069 7.28886 13.4434C7.33044 13.5087 7.3758 13.5491 7.4325 13.5721C7.56102 13.6259 7.70088 13.6221 7.83885 13.5779C7.91445 13.5548 7.98249 13.526 8.04297 13.4953C8.11479 13.4588 8.18283 13.4203 8.24331 13.38C8.30568 13.3396 8.36616 13.2973 8.42475 13.2531L8.57406 13.1417L8.57217 13.1436Z" fill="#495573" stroke="#495573" stroke-width="0.1"/>
<path d="M16.2587 17.4097C16.2587 17.5442 16.2398 17.6557 16.202 17.7441C16.1642 17.8325 16.1113 17.9036 16.0451 17.9574C15.979 18.0112 15.9053 18.0496 15.8221 18.0746C15.7389 18.0996 15.6539 18.113 15.567 18.113C15.3855 18.113 15.223 18.0842 15.0812 18.0246C14.9376 17.9651 14.8261 17.8728 14.7429 17.7441L12.5203 14.3197V17.4674C12.5203 17.696 12.4485 17.8613 12.3067 17.9612C12.1631 18.0611 12.0043 18.1111 11.8285 18.1111C11.7359 18.1111 11.6452 18.0977 11.5564 18.0727C11.4694 18.0477 11.3901 18.0093 11.322 17.9555C11.254 17.9017 11.1992 17.8363 11.1576 17.7537C11.116 17.673 11.0952 17.5769 11.0952 17.4654V12.3499C11.0952 12.2827 11.1103 12.2154 11.1406 12.1482C11.1708 12.0809 11.2162 12.0175 11.2767 11.9599C11.3371 11.9003 11.4127 11.8542 11.5035 11.8176C11.5942 11.7811 11.7019 11.7638 11.8285 11.7638C11.9438 11.7638 12.0459 11.7715 12.1328 11.7888C12.2198 11.8061 12.301 11.8349 12.371 11.8772C12.4428 11.9195 12.5108 11.9771 12.577 12.0482C12.6431 12.1193 12.7112 12.2135 12.783 12.325L14.8336 15.5322V12.3845C14.8336 12.1732 14.9092 12.0156 15.0604 11.9157C15.2116 11.8157 15.3798 11.7658 15.567 11.7658C15.6539 11.7658 15.7408 11.7792 15.8221 11.8042C15.9053 11.8292 15.979 11.8676 16.0451 11.9176C16.1113 11.9675 16.1623 12.0329 16.202 12.1097C16.2398 12.1885 16.2587 12.2808 16.2587 12.3865V17.4097Z" fill="#495573" stroke="#495573" stroke-width="0.1"/>
<path d="M15.567 18.2091C15.3743 18.2091 15.1985 18.1764 15.0454 18.115C14.8848 18.0496 14.7562 17.942 14.6636 17.7979L12.6149 14.6406V17.4693C12.6149 17.7306 12.5298 17.9228 12.3597 18.0419C12.1197 18.211 11.8097 18.2476 11.5319 18.1688C11.4336 18.1399 11.3429 18.0957 11.2654 18.0362C11.186 17.9747 11.1218 17.8959 11.0745 17.8036C11.0273 17.7095 11.0027 17.598 11.0027 17.4712V12.3557C11.0027 12.275 11.0216 12.1943 11.0575 12.1155C11.0934 12.0386 11.1444 11.9637 11.2144 11.8984C11.2824 11.8311 11.3693 11.7773 11.4714 11.7369C11.5735 11.6966 11.6944 11.6754 11.8305 11.6754C11.9515 11.6754 12.0592 11.6851 12.1518 11.7023C12.2501 11.7216 12.3408 11.7542 12.4202 11.8023C12.4996 11.8484 12.5752 11.9118 12.6489 11.9925C12.7169 12.0675 12.7906 12.1655 12.8643 12.2808L14.7411 15.2152V12.3922C14.7411 12.1463 14.8318 11.9618 15.0095 11.8426C15.1758 11.7331 15.3629 11.6754 15.567 11.6754C15.6634 11.6754 15.7579 11.6889 15.8487 11.7177C15.9413 11.7465 16.0263 11.7888 16.1 11.8465C16.1775 11.906 16.2399 11.981 16.2852 12.0732C16.3306 12.1655 16.3533 12.2731 16.3533 12.3922V17.4155C16.3533 17.5615 16.3306 17.6864 16.2871 17.7883C16.2418 17.892 16.1813 17.9766 16.1019 18.0381C16.0263 18.0977 15.9413 18.1438 15.8487 18.1726C15.7579 18.1995 15.6634 18.2149 15.567 18.2149V18.2091ZM12.4259 14.0007L14.8224 17.6922C14.8942 17.8056 14.9906 17.8844 15.1172 17.9362C15.2476 17.99 15.3988 18.0169 15.567 18.0169C15.6445 18.0169 15.722 18.0054 15.7957 17.9824C15.8657 17.9612 15.9299 17.9266 15.9866 17.8824C16.0395 17.8402 16.083 17.7806 16.1151 17.7056C16.1473 17.6288 16.1643 17.5288 16.1643 17.4097V12.3865C16.1643 12.2961 16.1492 12.2174 16.117 12.152C16.0849 12.0867 16.0433 12.0348 15.9885 11.9944C15.9318 11.9502 15.8676 11.9176 15.7957 11.8964C15.722 11.8734 15.6464 11.8618 15.567 11.8618C15.3969 11.8618 15.2495 11.906 15.1115 11.9964C14.9887 12.079 14.9282 12.2058 14.9282 12.3845V15.857L12.7037 12.3788C12.6356 12.2712 12.5695 12.1828 12.5071 12.1155C12.4485 12.0502 12.3862 11.9983 12.3238 11.9618C12.2614 11.9253 12.1915 11.9003 12.1159 11.8849C11.9496 11.8522 11.6925 11.8465 11.5376 11.9099C11.4582 11.9426 11.392 11.9829 11.341 12.0329C11.29 12.0828 11.2503 12.1366 11.2257 12.1924C11.2011 12.2462 11.1898 12.3 11.1898 12.3538V17.4693C11.1898 17.5654 11.2068 17.648 11.2408 17.7133C11.2767 17.7825 11.3202 17.8382 11.3788 17.8824C11.4374 17.9286 11.5054 17.9612 11.581 17.9843C11.6604 18.0073 11.7436 18.0189 11.8267 18.0189C11.9836 18.0189 12.1235 17.9747 12.2501 17.8844C12.3673 17.8017 12.424 17.6672 12.424 17.4693V14.0007H12.4259Z" fill="#495573" stroke="#495573" stroke-width="0.1"/>
</svg>
