<svg width="102" height="124" viewBox="0 0 102 124" fill="none" xmlns="http://www.w3.org/2000/svg">
<path d="M98.8005 49.4914L64.2623 25.1121L54.7016 18.3685C51.6337 16.2556 47.4274 16.9889 45.276 20.0375C43.1053 23.1054 43.8385 27.36 46.916 29.5307L88.0724 58.5794V109.76H68.3336C64.571 109.76 61.5224 112.808 61.5224 116.571C61.5224 120.333 64.571 123.382 68.3336 123.382H94.8739C98.6365 123.382 101.685 120.333 101.685 116.571V55.0484C101.685 52.8391 100.614 50.7649 98.8005 49.4818V49.4914Z" fill="url(#paint0_linear_63975_37)"/>
<path d="M6.80149 122.62C3.07754 122.62 0.0578613 119.6 0.0578613 115.876V54.9809C0.0578613 51.2569 3.07754 48.2372 6.80149 48.2372C10.5254 48.2372 13.5451 51.2569 13.5451 54.9809V115.876C13.5451 119.6 10.5254 122.62 6.80149 122.62Z" fill="url(#paint1_linear_63975_37)"/>
<path d="M24.2825 47.9381C20.52 47.9381 17.4714 44.8895 17.4714 41.127V21.0022C14.8955 21.9091 11.924 21.2048 10.0428 19.0052C7.5923 16.1495 7.92996 11.8564 10.7856 9.40589L19.8543 1.63962C21.8707 -0.0872889 24.7167 -0.492486 27.1286 0.626629C29.5404 1.7361 31.0937 4.15763 31.0937 6.8107V41.1366C31.0937 44.8992 28.0451 47.9478 24.2825 47.9478V47.9381Z" fill="url(#paint2_linear_63975_37)"/>
<path d="M67.4844 123.382C65.2269 123.382 63.0658 122.263 61.7924 120.304L40.78 88.2263V116.571C40.78 120.333 37.7314 123.382 33.9689 123.382C30.2063 123.382 27.1577 120.333 27.1577 116.571V65.4098C27.1577 62.3998 29.1355 59.7467 32.0201 58.8881C34.9047 58.0295 38.0112 59.1679 39.6609 61.6859L60.6733 93.764V65.4195C60.6733 61.6569 63.7219 58.6083 67.4844 58.6083C71.247 58.6083 74.2956 61.6569 74.2956 65.4195V116.58C74.2956 119.59 72.3178 122.243 69.4332 123.102C68.7868 123.295 68.1308 123.392 67.4844 123.392V123.382Z" fill="url(#paint3_linear_63975_37)"/>
<path d="M54.7401 18.407C52.3475 16.7187 49.1638 16.7284 46.7713 18.407L32.4929 28.4887C32.2807 28.6334 32.107 28.8167 31.9237 28.9807L2.87497 49.4914C2.77849 49.5589 2.70131 49.6458 2.61448 49.7229C0.974401 50.8806 0 52.7716 0 54.7782V68.2366L29.0294 47.7452C29.1259 47.6777 29.2031 47.5908 29.2899 47.5136L62.5836 23.9254L54.7498 18.407H54.7401Z" fill="url(#paint4_linear_63975_37)"/>
<defs>
<linearGradient id="paint0_linear_63975_37" x1="72.8486" y1="123.382" x2="72.8486" y2="17.1625" gradientUnits="userSpaceOnUse">
<stop stop-color="#E88E77"/>
<stop offset="0.82" stop-color="#FFE189"/>
</linearGradient>
<linearGradient id="paint1_linear_63975_37" x1="6.80149" y1="122.62" x2="6.80149" y2="48.2469" gradientUnits="userSpaceOnUse">
<stop stop-color="#FABF61"/>
<stop offset="0.86" stop-color="#FFD565"/>
</linearGradient>
<linearGradient id="paint2_linear_63975_37" x1="19.7482" y1="47.9382" x2="19.7482" y2="-0.000460036" gradientUnits="userSpaceOnUse">
<stop offset="0.08" stop-color="#FABF61"/>
<stop offset="0.57" stop-color="#FFD565"/>
</linearGradient>
<linearGradient id="paint3_linear_63975_37" x1="50.7266" y1="123.382" x2="50.7266" y2="58.6083" gradientUnits="userSpaceOnUse">
<stop stop-color="#E88E77"/>
<stop offset="1" stop-color="#FCC965"/>
</linearGradient>
<linearGradient id="paint4_linear_63975_37" x1="-0.00964754" y1="42.6899" x2="62.5739" y2="42.6899" gradientUnits="userSpaceOnUse">
<stop offset="0.08" stop-color="#FABF61"/>
<stop offset="0.57" stop-color="#FFD565"/>
</linearGradient>
</defs>
</svg>
