<svg width="9" height="11" viewBox="0 0 9 11" fill="none" xmlns="http://www.w3.org/2000/svg">
<path d="M8.43391 8.12545C8.13988 6.85087 7.22128 5.94046 5.7742 5.49094C5.07852 5.27472 4.29829 5.22919 3.3893 5.34869C2.47262 5.47007 1.6847 5.83424 1.04668 6.4298C0.327942 7.09934 -0.0237397 7.9206 0.00124312 8.86895C0.0127736 9.27864 0.19534 9.63142 0.531648 9.88558C0.77571 10.0715 1.05244 10.1454 1.26576 10.1891L1.32341 10.2004H7.20783L7.2943 10.172C7.95154 10.0544 8.42622 9.5859 8.48387 8.99224C8.5127 8.69446 8.4954 8.40426 8.43006 8.12734L8.43391 8.12545Z" fill="white"/>
<path d="M4.24242 4.58621H4.25011C4.87083 4.58621 5.45313 4.34912 5.89321 3.91668C6.33329 3.48423 6.57543 2.90953 6.57735 2.2969C6.57735 1.0337 5.53961 0.0018967 4.25779 0H4.25203C2.97022 0 1.92671 1.02611 1.92286 2.28931C1.91902 3.55061 2.95869 4.58242 4.2405 4.58621H4.24242Z" fill="white"/>
</svg>
