<svg width="26" height="26" viewBox="0 0 26 26" fill="none" xmlns="http://www.w3.org/2000/svg">
<path d="M9.83333 3.25H4.25C3.69772 3.25 3.25 3.69772 3.25 4.25V9.83333C3.25 10.3856 3.69772 10.8333 4.25 10.8333H9.83333C10.3856 10.8333 10.8333 10.3856 10.8333 9.83333V4.25C10.8333 3.69772 10.3856 3.25 9.83333 3.25Z" fill="#767676" stroke="#767676" stroke-linecap="round"/>
<path d="M21.7501 3.25H16.1667C15.6145 3.25 15.1667 3.69772 15.1667 4.25V9.83333C15.1667 10.3856 15.6145 10.8333 16.1667 10.8333H21.7501C22.3024 10.8333 22.7501 10.3856 22.7501 9.83333V4.25C22.7501 3.69772 22.3024 3.25 21.7501 3.25Z" fill="#767676" stroke="#767676" stroke-linecap="round"/>
<path d="M21.7501 15.1667H16.1667C15.6145 15.1667 15.1667 15.6144 15.1667 16.1667V21.75C15.1667 22.3023 15.6145 22.75 16.1667 22.75H21.7501C22.3024 22.75 22.7501 22.3023 22.7501 21.75V16.1667C22.7501 15.6144 22.3024 15.1667 21.7501 15.1667Z" fill="#767676" stroke="#767676" stroke-linecap="round"/>
<path d="M9.83333 15.1667H4.25C3.69772 15.1667 3.25 15.6144 3.25 16.1667V21.75C3.25 22.3023 3.69772 22.75 4.25 22.75H9.83333C10.3856 22.75 10.8333 22.3023 10.8333 21.75V16.1667C10.8333 15.6144 10.3856 15.1667 9.83333 15.1667Z" fill="#767676" stroke="#767676" stroke-linecap="round"/>
</svg>
