<svg width="24" height="24" viewBox="0 0 24 24" fill="none" xmlns="http://www.w3.org/2000/svg">
<path d="M4.25919 23C3.95938 23 3.65764 22.9378 3.36557 22.8115C2.52224 22.4441 2 21.6354 2 20.7004V8.60716C2 7.24446 2.47389 5.99257 3.30174 5.17223C4.09091 4.38882 5.19729 3.98059 6.5029 4.00003H16.5068C18.1083 4.00003 19.2456 4.39465 19.9845 5.20527C20.675 5.96341 20.9961 7.04423 20.9961 8.60716V15.8289C20.9961 18.3696 18.9807 20.436 16.5048 20.436H7.99226C7.90329 20.436 7.81625 20.471 7.74855 20.5351L5.77369 22.3896C5.34623 22.7901 4.80851 23 4.25919 23ZM6.43133 5.74957C5.60735 5.74957 4.97099 5.97313 4.52418 6.41634C3.81818 7.1181 3.74081 8.18143 3.74081 8.60716V20.6984C3.74081 21.0406 3.98453 21.1727 4.05996 21.2058C4.16828 21.2524 4.38104 21.303 4.58607 21.1105L6.56093 19.256C6.95358 18.8886 7.46228 18.6864 7.9942 18.6864H16.5087C18.0251 18.6864 19.2592 17.4054 19.2592 15.8289V8.60716C19.2592 7.52438 19.0774 6.79735 18.7041 6.38718C18.3133 5.95952 17.5957 5.74957 16.5106 5.74957H6.4913C6.47195 5.74957 6.45068 5.74957 6.43133 5.74957Z" fill="#495573" stroke="#495573" stroke-width="0.25"/>
<path d="M15.7021 10.7495H7.87041C7.38878 10.7495 7 10.3588 7 9.87477C7 9.39073 7.38878 9 7.87041 9H15.7021C16.1838 9 16.5725 9.39073 16.5725 9.87477C16.5725 10.3588 16.1838 10.7495 15.7021 10.7495Z" fill="#495573" stroke="#495573" stroke-width="0.2"/>
<path d="M12.7196 14.7495H7.87236C7.39073 14.7495 7.00195 14.3588 7.00195 13.8748C7.00195 13.3907 7.39073 13 7.87236 13H12.7196C13.2012 13 13.59 13.3907 13.59 13.8748C13.59 14.3588 13.2012 14.7495 12.7196 14.7495Z" fill="#495573" stroke="#495573" stroke-width="0.2"/>
</svg>
