<svg width="24" height="24" viewBox="0 0 24 24" fill="none" xmlns="http://www.w3.org/2000/svg">
<g clip-path="url(#clip0_7088_4314)">
<path d="M4.60496 22.8749C4.09107 22.8749 3.59673 22.6769 3.21767 22.3077L2.59632 21.7059C2.08439 21.2117 1.88509 20.508 2.06485 19.8216L2.89136 16.6934C2.97929 16.3627 3.15319 16.0589 3.39743 15.8147L14.3082 4.91296C15.5157 3.70742 17.495 3.69204 18.7201 4.88027L20.0703 6.18772C20.6643 6.76261 20.9945 7.53169 21.0004 8.35076C21.0062 9.16983 20.6877 9.94469 20.1035 10.5292L9.19474 21.429C8.95049 21.6732 8.64568 21.8501 8.30961 21.9405L5.14424 22.7999C4.96643 22.848 4.78472 22.873 4.60691 22.873L4.60496 22.8749ZM16.5298 5.53784C16.1273 5.53784 15.7248 5.68973 15.42 5.99352L4.51117 16.8933C4.46037 16.9453 4.42324 17.0087 4.4037 17.0799L3.57719 20.2081C3.52248 20.4177 3.63776 20.558 3.69052 20.608L4.31578 21.2137C4.37049 21.2656 4.51312 21.3771 4.7261 21.3213L7.89146 20.4619C7.96181 20.4427 8.02629 20.4042 8.07904 20.3542L18.9898 9.4544C19.2809 9.16214 19.4411 8.7776 19.4372 8.36807C19.4333 7.95853 19.2692 7.57591 18.9722 7.28943L17.622 5.98199C17.3192 5.68781 16.9245 5.54169 16.5298 5.54169V5.53784Z" fill="#767676" stroke="#767676" stroke-width="0.25"/>
<path d="M5.05773 15.2548L3.96094 16.3507L8.16122 20.4209L9.25801 19.3249L5.05773 15.2548Z" fill="#767676" stroke="#767676" stroke-width="0.25"/>
<path d="M13.8441 6.4748L12.7473 7.57077L17.2149 11.9L18.3117 10.804L13.8441 6.4748Z" fill="#767676" stroke="#767676" stroke-width="0.25"/>
<path d="M19.3573 24H11.0589C10.588 24 10.2031 23.6328 10.2031 23.1829C10.2031 22.7329 10.5861 22.3657 11.0589 22.3657H19.3573C19.8282 22.3657 20.2131 22.7329 20.2131 23.1829C20.2131 23.6328 19.8301 24 19.3573 24Z" fill="#767676" stroke="#767676" stroke-width="0.25"/>
</g>
<defs>
<clipPath id="clip0_7088_4314">
<rect width="24" height="24" fill="white"/>
</clipPath>
</defs>
</svg>
