<svg width="158" height="158" viewBox="0 0 158 158" fill="none" xmlns="http://www.w3.org/2000/svg">
<path d="M131.66 59.0593L95.8597 33.7893L92.9397 31.7293L85.9997 26.8393L85.9497 26.7993C85.6897 26.6193 85.4197 26.4693 85.1497 26.3293C85.0697 26.2893 84.9897 26.2493 84.9097 26.2093C84.6597 26.0893 84.3997 25.9893 84.1397 25.8993C84.0097 25.8593 83.8797 25.8193 83.7397 25.7893C83.5797 25.7493 83.4097 25.7093 83.2397 25.6793C81.3597 25.3093 79.3697 25.6893 77.7397 26.8393L64.3297 36.3093L32.6997 23.5193C30.1497 22.4793 27.2297 23.0293 25.2197 24.9193C23.2097 26.8093 22.4897 29.6893 23.3697 32.3093L27.3097 44.0393C28.5497 47.7293 32.5497 49.7193 36.2497 48.4793C39.0897 47.5293 40.9197 44.9393 41.0497 42.1193L50.6997 46.0193L32.2297 59.0593C32.1597 59.1093 32.0997 59.1693 32.0297 59.2293C31.9297 59.3093 31.8197 59.3893 31.7197 59.4793C30.1597 60.6893 29.2397 62.5493 29.2397 64.5293V78.4793L29.3097 78.4293V127.859C29.3097 131.719 32.4397 134.849 36.2997 134.849C40.1597 134.849 43.2897 131.719 43.2897 127.859V68.5693L59.3397 57.2393C59.4397 57.1693 59.5197 57.0793 59.6097 56.9993L81.8997 41.1993L120.53 68.4693V121.519H100.07C96.1697 121.519 93.0097 124.679 93.0097 128.579C93.0097 132.479 96.1697 135.639 100.07 135.639H127.58C131.48 135.639 134.64 132.479 134.64 128.579V64.8093C134.64 62.5193 133.53 60.3693 131.65 59.0393L131.66 59.0593Z" fill="#D9D9D9"/>
<path d="M61.3 74.78C61.74 74.64 62.25 74.52 62.82 74.43C63.39 74.34 63.91 74.29 64.38 74.29C64.92 74.29 65.44 74.34 65.94 74.45C66.44 74.56 66.89 74.73 67.29 74.98C67.69 75.23 68 75.56 68.24 75.98C68.47 76.4 68.59 76.93 68.59 77.56V86.88H71.71C71.85 87.14 71.99 87.48 72.13 87.9C72.27 88.32 72.34 88.76 72.34 89.23C72.34 90.12 72.14 90.75 71.74 91.12C71.34 91.49 70.84 91.68 70.23 91.68H68.58V95.82C68.32 95.87 67.94 95.93 67.42 96.01C66.91 96.09 66.42 96.13 65.95 96.13C65.44 96.13 64.98 96.11 64.58 96.06C64.18 96.01 63.85 95.9 63.58 95.73C63.31 95.56 63.11 95.3 62.97 94.98C62.83 94.66 62.76 94.21 62.76 93.65V91.69H53.96C53.42 91.41 52.96 91 52.58 90.45C52.19 89.9 52 89.23 52 88.43C52 87.99 52.06 87.5 52.18 86.96C52.3 86.42 52.5 85.96 52.78 85.56L61.3 74.8V74.78ZM63.09 80.28H62.99L58.33 86.87H63.1V80.28H63.09Z" fill="#CCCBCB"/>
<path d="M91.1298 85.19C91.1298 86.99 90.8998 88.59 90.4298 89.99C89.9598 91.39 89.3098 92.57 88.4798 93.51C87.6498 94.46 86.6598 95.18 85.4998 95.67C84.3398 96.16 83.0898 96.41 81.7298 96.41C80.3698 96.41 79.0798 96.16 77.9298 95.67C76.7698 95.18 75.7798 94.46 74.9498 93.51C74.1198 92.56 73.4798 91.39 73.0198 89.99C72.5598 88.59 72.3398 86.99 72.3398 85.19C72.3398 83.39 72.5698 81.8 73.0198 80.4C73.4798 79.01 74.1198 77.84 74.9498 76.9C75.7798 75.95 76.7698 75.23 77.9298 74.74C79.0898 74.25 80.3498 74 81.7298 74C83.1098 74 84.3398 74.25 85.4998 74.74C86.6598 75.23 87.6498 75.95 88.4798 76.9C89.3098 77.85 89.9598 79.02 90.4298 80.4C90.8998 81.79 91.1298 83.39 91.1298 85.19ZM85.1398 85.19C85.1398 83.13 84.8398 81.54 84.2498 80.42C83.6498 79.3 82.8098 78.74 81.7098 78.74C80.6098 78.74 79.7798 79.3 79.1998 80.42C78.6298 81.54 78.3398 83.13 78.3398 85.19C78.3398 87.25 78.6298 88.84 79.1998 89.98C79.7698 91.11 80.6098 91.68 81.7098 91.68C82.8098 91.68 83.6598 91.11 84.2498 89.98C84.8498 88.85 85.1398 87.25 85.1398 85.19Z" fill="#CCCBCB"/>
<path d="M100.8 74.78C101.24 74.64 101.75 74.52 102.32 74.43C102.89 74.34 103.41 74.29 103.88 74.29C104.42 74.29 104.94 74.34 105.44 74.45C105.94 74.56 106.39 74.73 106.79 74.98C107.19 75.23 107.5 75.56 107.74 75.98C107.97 76.4 108.09 76.93 108.09 77.56V86.88H111.21C111.35 87.14 111.49 87.48 111.63 87.9C111.77 88.32 111.84 88.76 111.84 89.23C111.84 90.12 111.64 90.75 111.24 91.12C110.84 91.49 110.34 91.68 109.73 91.68H108.08V95.82C107.82 95.87 107.44 95.93 106.92 96.01C106.41 96.09 105.92 96.13 105.45 96.13C104.94 96.13 104.48 96.11 104.08 96.06C103.68 96.01 103.35 95.9 103.08 95.73C102.81 95.56 102.61 95.3 102.47 94.98C102.33 94.66 102.26 94.21 102.26 93.65V91.69H93.46C92.92 91.41 92.46 91 92.08 90.45C91.69 89.9 91.5 89.23 91.5 88.43C91.5 87.99 91.56 87.5 91.68 86.96C91.8 86.42 92 85.96 92.28 85.56L100.8 74.8V74.78ZM102.59 80.28H102.49L97.83 86.87H102.6V80.28H102.59Z" fill="#CCCBCB"/>
<circle cx="73" cy="106" r="2" fill="#CCCBCB"/>
<circle cx="82" cy="106" r="2" fill="#CCCBCB"/>
<circle cx="91" cy="106" r="2" fill="#CCCBCB"/>
</svg>
