<svg width="10" height="10" viewBox="0 0 10 10" fill="none" xmlns="http://www.w3.org/2000/svg">
<path d="M8.57039 1.51V2.15H1.35039V1.51H4.58039V0.65H5.40039V1.51H8.57039ZM5.40039 5.72H9.03039V6.37H0.930391V5.72H4.58039V5.04C3.77372 5.00667 3.15706 4.88333 2.73039 4.67C2.30372 4.45667 2.09039 4.15667 2.09039 3.77C2.09039 3.35 2.33372 3.03333 2.82039 2.82C3.31372 2.60667 4.03706 2.5 4.99039 2.5C5.93706 2.5 6.65372 2.60667 7.14039 2.82C7.63372 3.03333 7.88039 3.35 7.88039 3.77C7.88039 4.15667 7.66706 4.45667 7.24039 4.67C6.82039 4.88333 6.20706 5.00667 5.40039 5.04V5.72ZM2.95039 3.77C2.95039 3.99667 3.12372 4.17 3.47039 4.29C3.81706 4.41 4.32372 4.47 4.99039 4.47C5.63706 4.47 6.13372 4.41 6.48039 4.29C6.83372 4.17 7.01039 3.99667 7.01039 3.77C7.01039 3.55 6.83372 3.38 6.48039 3.26C6.13372 3.14 5.63706 3.08 4.99039 3.08C4.32372 3.08 3.81706 3.14 3.47039 3.26C3.12372 3.38 2.95039 3.55 2.95039 3.77ZM1.93039 9.62V7.07H8.05039V9.62H1.93039ZM2.73039 7.69V9H7.25039V7.69H2.73039Z" fill="#767676"/>
</svg>
