<svg width="24" height="24" viewBox="0 0 24 24" fill="none" xmlns="http://www.w3.org/2000/svg">
<g clip-path="url(#clip0_7088_4310)">
<path d="M5.37451 24H17.5737L17.6584 23.9814C18.0913 23.8884 18.5943 23.7453 19.0419 23.3902C19.6462 22.9105 19.9778 22.2523 19.998 21.4863C20.0496 19.5378 19.3588 17.8496 17.9477 16.4737C16.671 15.2299 15.0941 14.4695 13.2574 14.2147C11.4096 13.9582 9.83083 14.0548 8.42891 14.5104C5.49978 15.4604 3.71651 17.2974 3.12884 19.9691C3.00541 20.5306 2.97041 21.1219 3.02752 21.7261C3.13068 22.8454 4.01126 23.7304 5.22713 23.9498C5.23266 23.9517 5.24003 23.9535 5.24555 23.9572L5.37635 24.0019L5.37451 24ZM17.395 22.3267H5.649C5.61952 22.3192 5.5882 22.3118 5.55136 22.3062C5.06133 22.23 4.70947 21.9344 4.67631 21.57C4.63578 21.1405 4.65973 20.724 4.74631 20.3317C5.20318 18.253 6.57379 16.8698 8.93552 16.1037C10.0943 15.7282 11.4354 15.6519 13.0308 15.8732C14.5119 16.0777 15.7775 16.6857 16.7944 17.6785C17.874 18.7309 18.3787 19.9636 18.34 21.4454C18.3327 21.7187 18.2406 21.9028 18.0177 22.0775C17.885 22.1835 17.6953 22.2597 17.395 22.3304V22.3267Z" fill="#767676" stroke="#767676" stroke-width="0.35"/>
<path d="M11.5019 13.0397H11.5166C13.987 13.0323 15.9914 11.002 15.9858 8.51427C15.9785 6.02287 13.9668 4 11.4963 4H11.4853C9.01671 4.00558 7.01238 6.03774 7.01606 8.52728C7.01606 9.73394 7.48583 10.8662 8.33509 11.7196C9.18251 12.5712 10.3081 13.0397 11.5019 13.0397V13.0397ZM11.5111 11.3664H11.5019C10.7484 11.3664 10.0391 11.0707 9.50306 10.5334C8.96882 9.9961 8.67406 9.284 8.67222 8.52543C8.67038 6.95621 9.9323 5.67705 11.4871 5.67333H11.4945C13.053 5.67333 14.3223 6.94878 14.326 8.51799C14.3297 10.0835 13.0659 11.3608 11.5092 11.3645L11.5111 11.3664Z" fill="#767676" stroke="#767676" stroke-width="0.35"/>
</g>
<defs>
<clipPath id="clip0_7088_4310">
<rect width="24" height="24" fill="white"/>
</clipPath>
</defs>
</svg>
