<svg width="48" height="10" viewBox="0 0 48 10" fill="none" xmlns="http://www.w3.org/2000/svg">
<path d="M7.75379 0.77H8.53379V9.74H7.75379V0.77ZM5.88379 4.44V1.01H6.66379V9.29H5.88379V5.1H4.04379C3.76379 5.62 3.41046 6.10667 2.98379 6.56C2.55712 7.01333 2.03046 7.43 1.40379 7.81L0.923789 7.22C1.89712 6.63333 2.62712 5.95333 3.11379 5.18C3.60046 4.4 3.88046 3.53333 3.95379 2.58H1.30379V1.91H4.76379C4.76379 2.35 4.73046 2.78333 4.66379 3.21C4.59712 3.63 4.48712 4.04 4.33379 4.44H5.88379ZM16.633 0.77H17.453V9.76H16.633V0.77ZM13.293 1.55V3.16C13.293 3.56667 13.3563 3.97333 13.483 4.38C13.6097 4.78 13.7797 5.15333 13.993 5.5C14.213 5.84667 14.4697 6.15667 14.763 6.43C15.0563 6.69667 15.3663 6.90333 15.693 7.05L15.203 7.71C14.683 7.45667 14.2197 7.08333 13.813 6.59C13.413 6.09 13.1063 5.51667 12.893 4.87C12.6863 5.55667 12.3797 6.16 11.973 6.68C11.5663 7.2 11.0997 7.6 10.573 7.88L10.073 7.21C10.3997 7.05 10.7097 6.83 11.003 6.55C11.2963 6.27 11.553 5.95 11.773 5.59C11.993 5.23 12.1663 4.84333 12.293 4.43C12.4197 4.01 12.483 3.58667 12.483 3.16V1.55H13.293ZM26.3722 1.07V3.8H20.3622V1.07H26.3722ZM25.5622 3.15V1.72H21.1622V3.15H25.5622ZM27.4222 5.21H23.7722V6.09H26.3822V8.11H21.1122V9H26.6522V9.64H20.3122V7.51H25.5722V6.71H20.2822V6.09H22.9522V5.21H19.3022V4.55H27.4222V5.21ZM39.0378 3.13V3.81H37.7078V6.18H36.8878V0.78H37.7078V3.13H39.0378ZM35.9578 5.16L35.5378 5.8C35.0378 5.62667 34.6011 5.36667 34.2278 5.02C33.8544 4.66667 33.5711 4.26 33.3778 3.8C33.1844 4.3 32.8944 4.74 32.5078 5.12C32.1211 5.5 31.6644 5.78667 31.1378 5.98L30.7078 5.33C31.0478 5.21 31.3544 5.05333 31.6278 4.86C31.9078 4.66 32.1444 4.43333 32.3378 4.18C32.5378 3.92667 32.6911 3.65 32.7978 3.35C32.9044 3.05 32.9578 2.74 32.9578 2.42V2.06H30.9478V1.4H35.7578V2.06H33.7778V2.41C33.7778 2.71 33.8278 3 33.9278 3.28C34.0344 3.56 34.1811 3.82 34.3678 4.06C34.5611 4.3 34.7911 4.51667 35.0578 4.71C35.3311 4.89667 35.6311 5.04667 35.9578 5.16ZM31.8678 7.32V6.66H37.7078V9.75H36.8878V7.32H31.8678ZM46.507 6.08V3.35H44.557V2.68H46.507V0.78H47.337V6.08H46.507ZM45.207 5.02L44.767 5.66C44.267 5.47333 43.8337 5.21 43.467 4.87C43.107 4.52333 42.8303 4.11667 42.637 3.65C42.4437 4.19 42.1503 4.65333 41.757 5.04C41.3703 5.42667 40.907 5.72333 40.367 5.93L39.937 5.26C40.2837 5.14 40.597 4.97667 40.877 4.77C41.157 4.56333 41.3937 4.32667 41.587 4.06C41.787 3.79333 41.9403 3.50333 42.047 3.19C42.1537 2.87 42.207 2.54 42.207 2.2V1.28H43.027V2.17C43.027 2.49 43.077 2.79667 43.177 3.09C43.2837 3.38333 43.4303 3.65333 43.617 3.9C43.8103 4.14667 44.0403 4.36667 44.307 4.56C44.5803 4.75333 44.8803 4.90667 45.207 5.02ZM44.377 6.35C44.837 6.35 45.2503 6.38667 45.617 6.46C45.9837 6.53333 46.297 6.64333 46.557 6.79C46.817 6.93667 47.0137 7.11333 47.147 7.32C47.287 7.52667 47.357 7.76667 47.357 8.04C47.357 8.30667 47.287 8.54667 47.147 8.76C47.0137 8.96667 46.817 9.14 46.557 9.28C46.297 9.42667 45.9837 9.53667 45.617 9.61C45.2503 9.69 44.837 9.73 44.377 9.73C43.917 9.73 43.5003 9.69 43.127 9.61C42.7603 9.53667 42.447 9.42667 42.187 9.28C41.9337 9.14 41.737 8.96667 41.597 8.76C41.457 8.54667 41.387 8.30667 41.387 8.04C41.387 7.76667 41.457 7.52667 41.597 7.32C41.737 7.11333 41.9337 6.93667 42.187 6.79C42.447 6.64333 42.7603 6.53333 43.127 6.46C43.5003 6.38667 43.917 6.35 44.377 6.35ZM44.377 9.08C45.0637 9.08 45.597 8.99 45.977 8.81C46.357 8.62333 46.547 8.36667 46.547 8.04C46.547 7.7 46.357 7.44 45.977 7.26C45.597 7.08 45.0637 6.99 44.377 6.99C43.6903 6.99 43.157 7.08 42.777 7.26C42.397 7.44 42.207 7.7 42.207 8.04C42.207 8.36667 42.397 8.62333 42.777 8.81C43.157 8.99 43.6903 9.08 44.377 9.08Z" fill="#767676"/>
</svg>
