<svg width="18" height="10" viewBox="0 0 18 10" fill="none" xmlns="http://www.w3.org/2000/svg">
<path d="M7.69078 0.77H8.48078V9.74H7.69078V5.07H6.51078V9.3H5.74078V0.97H6.51078V4.39H7.69078V0.77ZM3.44078 3.11V3.52C3.44078 3.88 3.48411 4.23667 3.57078 4.59C3.66411 4.93667 3.79078 5.26667 3.95078 5.58C4.11745 5.89333 4.32078 6.18 4.56078 6.44C4.80078 6.69333 5.07078 6.90333 5.37078 7.07L4.90078 7.68C4.46078 7.43333 4.08411 7.09667 3.77078 6.67C3.46411 6.24333 3.22745 5.76 3.06078 5.22C2.90745 5.80667 2.67411 6.33333 2.36078 6.8C2.05411 7.26 1.68078 7.62 1.24078 7.88L0.750781 7.26C1.05078 7.08 1.31745 6.85333 1.55078 6.58C1.79078 6.30667 1.99078 6.00667 2.15078 5.68C2.31745 5.34667 2.44411 4.99667 2.53078 4.63C2.61745 4.25667 2.66078 3.88667 2.66078 3.52V3.11H0.970781V2.44H2.66078V1.1H3.45078V2.44H5.13078V3.11H3.44078ZM17.39 0.78V6.33H16.57V0.78H17.39ZM15.54 4.78L15.63 5.43C15.3033 5.48333 14.9833 5.52667 14.67 5.56C14.3567 5.59333 14.03 5.62 13.69 5.64C13.35 5.66 12.9833 5.67333 12.59 5.68C12.1967 5.68667 11.7567 5.69 11.27 5.69H10.54V1.43H14.82V2.09H11.36V3.21H14.57V3.86H11.36V5.03C11.8267 5.03 12.2467 5.02667 12.62 5.02C13 5.01333 13.3533 5.00333 13.68 4.99C14.0067 4.97 14.32 4.94333 14.62 4.91C14.92 4.87667 15.2267 4.83333 15.54 4.78ZM14.41 6.46C15.3567 6.46 16.0933 6.60333 16.62 6.89C17.1533 7.17667 17.42 7.58 17.42 8.1C17.42 8.62 17.1533 9.02 16.62 9.3C16.0933 9.58667 15.3567 9.73 14.41 9.73C13.4767 9.73 12.7433 9.58667 12.21 9.3C11.6767 9.02 11.41 8.62 11.41 8.1C11.41 7.58 11.6767 7.17667 12.21 6.89C12.7433 6.60333 13.4767 6.46 14.41 6.46ZM14.41 9.09C15.0967 9.09 15.6333 9.00667 16.02 8.84C16.4133 8.66667 16.61 8.42 16.61 8.1C16.61 7.78 16.4133 7.53333 16.02 7.36C15.6333 7.18667 15.0967 7.1 14.41 7.1C13.7233 7.1 13.1867 7.18667 12.8 7.36C12.4133 7.53333 12.22 7.78 12.22 8.1C12.22 8.42 12.4133 8.66667 12.8 8.84C13.1867 9.00667 13.7233 9.09 14.41 9.09Z" fill="#767676"/>
</svg>
