<svg width="26" height="26" viewBox="0 0 26 26" fill="none" xmlns="http://www.w3.org/2000/svg">
<path d="M21.75 3.25H4.25C3.69772 3.25 3.25 3.69772 3.25 4.25V6.58333C3.25 7.13562 3.69772 7.58333 4.25 7.58333H21.75C22.3023 7.58333 22.75 7.13562 22.75 6.58333V4.25C22.75 3.69772 22.3023 3.25 21.75 3.25Z" fill="#DBDBDB" stroke="#DBDBDB" stroke-linecap="round"/>
<path d="M21.75 10.8333H4.25C3.69772 10.8333 3.25 11.2811 3.25 11.8333V14.1667C3.25 14.719 3.69772 15.1667 4.25 15.1667H21.75C22.3023 15.1667 22.75 14.719 22.75 14.1667V11.8333C22.75 11.2811 22.3023 10.8333 21.75 10.8333Z" fill="#DBDBDB" stroke="#DBDBDB" stroke-linecap="round"/>
<path d="M21.75 18.4167H4.25C3.69772 18.4167 3.25 18.8644 3.25 19.4167V21.75C3.25 22.3023 3.69772 22.75 4.25 22.75H21.75C22.3023 22.75 22.75 22.3023 22.75 21.75V19.4167C22.75 18.8644 22.3023 18.4167 21.75 18.4167Z" fill="#DBDBDB" stroke="#DBDBDB" stroke-linecap="round"/>
</svg>
