<svg width="27" height="10" viewBox="0 0 27 10" fill="none" xmlns="http://www.w3.org/2000/svg">
<path d="M2.84117 5.45V2.33H1.45117V1.67H8.10117V2.33H6.71117V5.45H8.08117V6.12H1.47117V5.45H2.84117ZM5.89117 5.45V2.33H3.66117V5.45H5.89117ZM0.731172 7.91H8.86117V8.59H0.731172V7.91ZM14.4004 7.96H18.0704V8.63H9.92039V7.96H13.5704V6.27H10.9404V3.5H16.2604V2.1H10.9204V1.43H17.0604V4.16H11.7504V5.61H17.2704V6.27H14.4004V7.96ZM26.4996 0.77V5.43H25.6796V0.77H26.4996ZM24.7796 4.18L24.8196 4.78C24.3729 4.84667 23.9096 4.90333 23.4296 4.95C22.9563 4.99 22.4829 5.02333 22.0096 5.05C21.5429 5.07667 21.0829 5.09667 20.6296 5.11C20.1829 5.11667 19.7629 5.12 19.3696 5.12L19.2896 4.44H20.1296C20.2229 4.44 20.3163 4.43667 20.4096 4.43V2.02H19.5296V1.37H24.3396V2.02H23.4596V4.31C23.6863 4.29667 23.9096 4.28 24.1296 4.26C24.3496 4.23333 24.5663 4.20667 24.7796 4.18ZM21.2096 2.02V4.41C21.6896 4.40333 22.1763 4.38333 22.6696 4.35V2.02H21.2096ZM21.4796 8.99H26.8396V9.64H20.6696V7.4H25.6896V6.5H20.6396V5.86H26.4996V8.01H21.4796V8.99Z" fill="#767676"/>
</svg>
