<svg width="90" height="32" viewBox="0 0 90 32" fill="none" xmlns="http://www.w3.org/2000/svg">
<rect width="90" height="32" rx="16" fill="#ABB9D6"/>
<path d="M36.3676 9.436H34.9256V12.348H32.5876C32.3216 10.934 30.9916 9.996 29.3676 9.996C27.4776 9.996 26.0636 11.214 26.0636 12.95C26.0636 14.7 27.4776 15.918 29.3676 15.918C31.0476 15.918 32.3216 14.938 32.5876 13.524H34.9256V16.212H36.3676V9.436ZM29.3676 14.728C28.2476 14.728 27.4496 14.014 27.4496 12.95C27.4496 11.872 28.2476 11.186 29.3676 11.186C30.4876 11.186 31.2716 11.872 31.2716 12.95C31.2716 14.014 30.4456 14.728 29.3676 14.728ZM34.9396 16.814V18.242H29.5776V16.814H28.1496V21.924H36.3676V16.814H34.9396ZM34.9396 19.362V20.762H29.5776V19.362H34.9396ZM50.2265 19.404H45.2005V17.248H49.1485V16.086H41.5745V14.322H48.8685V10.318H40.1325V11.48H47.4405V13.174H40.1605V17.248H43.7585V19.404H38.7745V20.594H50.2265V19.404ZM61.8175 16.562V15.4H54.4955V11.718H61.7195V10.542H53.0535V16.562H61.8175ZM63.1195 19.264H51.6535V20.454H63.1195V19.264Z" fill="white"/>
</svg>
